<?xml version="1.0" encoding="UTF-8" standalone="no"?>
<!DOCTYPE svg PUBLIC "-//W3C//DTD SVG 1.1//EN" "http://www.w3.org/Graphics/SVG/1.1/DTD/svg11.dtd">
<svg width="100%" height="100%" viewBox="0 0 396 81" version="1.1" xmlns="http://www.w3.org/2000/svg" xmlns:xlink="http://www.w3.org/1999/xlink" xml:space="preserve" xmlns:serif="http://www.serif.com/" style="fill-rule:evenodd;clip-rule:evenodd;stroke-linejoin:round;stroke-miterlimit:2;">
    <g transform="matrix(1,0,0,1,-6969.94,-3100.36)">
        <g transform="matrix(1,0,0,1.21481,6889,2326)">
            <g transform="matrix(1,0,0,1,32.6606,535.728)">
                <g transform="matrix(0.997638,0,0,0.997638,-1.42907,-191.995)">
                    <path d="M153.276,358.108L139.002,330.142L124.822,358.108C124.632,358.526 124.394,358.8 124.108,358.931C123.823,359.061 123.553,359.127 123.299,359.127L121.301,359.127C121.047,359.127 120.762,359.061 120.445,358.931C120.127,358.8 119.874,358.526 119.683,358.108L91.705,302.567C91.388,302.045 91.403,301.64 91.752,301.353C92.101,301.066 92.498,300.922 92.942,300.922L95.892,300.922C96.526,300.922 97.002,301.262 97.319,301.941L122.633,352.155L147.471,301.941C147.725,301.523 147.979,301.249 148.233,301.118C148.486,300.988 148.74,300.922 148.994,300.922L151.944,300.922C152.388,300.922 152.737,301.066 152.991,301.353C153.245,301.64 153.245,302.045 152.991,302.567L141.952,324.502L156.131,352.311L181.16,301.941C181.35,301.523 181.572,301.249 181.826,301.118C182.08,300.988 182.333,300.922 182.587,300.922L185.347,300.922C185.791,300.922 186.188,301.066 186.537,301.353C186.886,301.64 186.933,302.045 186.679,302.567L158.511,358.108C158.32,358.526 158.066,358.8 157.749,358.931C157.432,359.061 157.146,359.127 156.893,359.127L154.894,359.127C154.64,359.127 154.371,359.061 154.085,358.931C153.8,358.8 153.53,358.526 153.276,358.108ZM218.542,355.327C221.777,355.327 225.013,354.87 228.249,353.956C231.484,353.042 234.117,351.907 236.147,350.549L236.147,334.725C236.147,333.837 236.687,333.393 237.765,333.393L240.239,333.393C241.255,333.393 241.762,333.837 241.762,334.725L241.762,351.88C241.762,352.559 241.508,353.029 241.001,353.291C237.955,355.223 234.545,356.79 230.771,357.991C226.996,359.192 222.951,359.792 218.637,359.792C213.498,359.792 208.708,359.022 204.267,357.482C199.826,355.941 195.972,353.826 192.705,351.136C189.437,348.447 186.868,345.287 184.996,341.657C183.125,338.028 182.189,334.15 182.189,330.024C182.189,325.846 183.14,321.956 185.044,318.352C186.947,314.749 189.548,311.602 192.847,308.913C196.146,306.223 200.001,304.108 204.41,302.567C208.819,301.027 213.53,300.256 218.542,300.256C222.919,300.256 226.932,300.831 230.58,301.98C234.228,303.129 237.607,304.722 240.715,306.758C241.35,307.176 241.619,307.542 241.524,307.855C241.429,308.168 241.318,308.377 241.191,308.482L239.668,310.205C239.542,310.31 239.272,310.453 238.86,310.636C238.447,310.819 237.955,310.727 237.384,310.362C234.72,308.743 231.833,307.411 228.724,306.367C225.616,305.322 222.253,304.8 218.637,304.8C214.386,304.8 210.373,305.466 206.599,306.798C202.824,308.129 199.541,309.931 196.749,312.203C193.958,314.475 191.753,317.138 190.135,320.193C188.517,323.248 187.708,326.525 187.708,330.024C187.708,333.471 188.517,336.735 190.135,339.817C191.753,342.898 193.958,345.587 196.749,347.885C199.541,350.183 202.808,351.998 206.551,353.33C210.294,354.661 214.291,355.327 218.542,355.327ZM76.055,314.225L54.572,355.424L51.001,359.834L49.822,353.745L72.659,309.951C71.687,308.915 71.109,307.618 71.109,306.209C71.109,303.548 73.174,301.281 76.055,300.435L76.055,294.389L81.054,294.389L81.054,300.435C83.936,301.281 86.001,303.548 86.001,306.209C86.001,307.618 85.422,308.915 84.451,309.951L107.288,353.745L106.109,359.834L102.538,355.424L81.054,314.225L81.054,314.965L78.513,317.242L76.055,314.965L76.055,314.225ZM78.555,302.182C75.854,302.182 73.662,303.986 73.662,306.209C73.662,308.432 75.854,310.237 78.555,310.237C81.255,310.237 83.448,308.432 83.448,306.209C83.448,303.986 81.255,302.182 78.555,302.182ZM78.555,303.495C80.375,303.495 81.852,304.711 81.852,306.209C81.852,307.707 80.375,308.924 78.555,308.924C76.735,308.924 75.257,307.707 75.257,306.209C75.257,304.711 76.735,303.495 78.555,303.495Z"/>
                </g>
                <g>
                    <g transform="matrix(0.604127,0,0,0.4973,-1884.54,-2365.32)">
                        <g>
                            <g>
                                <g transform="matrix(1,0,0,1,-2,152.042)">
                                    <g transform="matrix(1,0,0,1,-27964.5,2492.51)">
                                        <path d="M31546,2323.59L31559.4,2356.04C31559.5,2356.37 31559.5,2356.63 31559.4,2356.79C31559.2,2356.96 31559,2357.05 31558.8,2357.05L31557.4,2357.05C31557.1,2357.05 31556.9,2356.85 31556.7,2356.45L31553.5,2348.52L31535.9,2348.52L31532.7,2356.4C31532.5,2356.83 31532.3,2357.05 31532,2357.05L31530.5,2357.05C31530.3,2357.05 31530.2,2356.96 31530,2356.79C31529.8,2356.63 31529.8,2356.37 31530,2356.04L31543.6,2323.59C31543.7,2323.19 31544,2322.99 31544.3,2322.99L31545.2,2322.99C31545.6,2322.99 31545.8,2323.19 31546,2323.59ZM31544.7,2327.25L31537,2345.91L31552.4,2345.91L31544.7,2327.25Z" style="fill-rule:nonzero;"/>
                                    </g>
                                    <g transform="matrix(1,0,0,1,-27964.5,2492.51)">
                                        <path d="M31587.7,2351.64C31587.8,2351.49 31588,2351.4 31588.3,2351.39C31588.5,2351.37 31588.7,2351.47 31588.8,2351.68L31589.5,2352.74C31589.6,2352.98 31589.7,2353.17 31589.6,2353.31C31589.6,2353.45 31589.4,2353.59 31589.2,2353.75C31587.8,2354.91 31586.2,2355.82 31584.4,2356.5C31582.6,2357.17 31580.7,2357.5 31578.6,2357.5C31576.2,2357.5 31573.9,2357.05 31571.8,2356.13C31569.6,2355.21 31567.8,2353.96 31566.2,2352.37C31564.6,2350.78 31563.3,2348.92 31562.4,2346.78C31561.5,2344.64 31561,2342.36 31561,2339.95C31561,2337.51 31561.5,2335.23 31562.4,2333.12C31563.3,2331.01 31564.6,2329.17 31566.2,2327.6C31567.8,2326.02 31569.6,2324.79 31571.8,2323.89C31573.9,2322.98 31576.2,2322.53 31578.6,2322.53C31580.7,2322.53 31582.6,2322.87 31584.4,2323.54C31586.2,2324.21 31587.8,2325.13 31589.3,2326.29C31589.6,2326.54 31589.8,2326.76 31589.7,2326.96C31589.7,2327.16 31589.7,2327.28 31589.6,2327.35L31588.9,2328.35C31588.8,2328.41 31588.7,2328.49 31588.5,2328.58C31588.3,2328.68 31588,2328.61 31587.8,2328.4C31586.5,2327.42 31585.1,2326.63 31583.6,2326.02C31582,2325.41 31580.4,2325.1 31578.7,2325.1C31576.6,2325.1 31574.7,2325.49 31572.9,2326.27C31571.1,2327.05 31569.5,2328.12 31568.2,2329.48C31566.8,2330.84 31565.7,2332.42 31564.9,2334.22C31564.1,2336.02 31563.7,2337.93 31563.7,2339.95C31563.7,2342 31564.1,2343.93 31564.9,2345.75C31565.7,2347.57 31566.8,2349.16 31568.1,2350.51C31569.5,2351.87 31571.1,2352.95 31572.9,2353.75C31574.7,2354.54 31576.6,2354.94 31578.6,2354.94C31580.3,2354.94 31582,2354.63 31583.5,2354.02C31585.1,2353.41 31586.4,2352.62 31587.7,2351.64Z" style="fill-rule:nonzero;"/>
                                    </g>
                                    <g transform="matrix(1,0,0,1,-27964.5,2492.51)">
                                        <path d="M31593.1,2322.99L31617.1,2322.99C31617.3,2322.99 31617.5,2323.06 31617.7,2323.2C31617.9,2323.34 31618,2323.54 31618,2323.82L31618,2324.83C31618,2325.38 31617.7,2325.65 31617.1,2325.65L31606.5,2325.65L31606.5,2356.18C31606.5,2356.72 31606.2,2357 31605.6,2357L31604.7,2357C31604.1,2357 31603.8,2356.72 31603.8,2356.18L31603.8,2325.65L31593.1,2325.65C31592.6,2325.65 31592.3,2325.34 31592.3,2324.73L31592.3,2323.82C31592.3,2323.27 31592.6,2322.99 31593.1,2322.99Z" style="fill-rule:nonzero;"/>
                                    </g>
                                    <g transform="matrix(1,0,0,1,-27964.5,2492.51)">
                                        <path d="M31623,2356.18L31623,2323.82C31623,2323.27 31623.3,2322.99 31623.9,2322.99L31624.8,2322.99C31625.4,2322.99 31625.7,2323.27 31625.7,2323.82L31625.7,2356.18C31625.7,2356.72 31625.4,2357 31624.8,2357L31623.9,2357C31623.3,2357 31623,2356.72 31623,2356.18Z" style="fill-rule:nonzero;"/>
                                    </g>
                                    <g transform="matrix(1,0,0,1,-27964.5,2492.51)">
                                        <path d="M31659.6,2324L31646,2356.4C31645.9,2356.8 31645.6,2357 31645.3,2357L31644.4,2357C31644,2357 31643.8,2356.8 31643.6,2356.4L31630.1,2324C31630,2323.66 31630,2323.41 31630.2,2323.24C31630.3,2323.08 31630.5,2322.99 31630.7,2322.99L31632.2,2322.99C31632.4,2322.99 31632.7,2323.21 31632.9,2323.63L31644.9,2352.78L31656.9,2323.59C31657,2323.34 31657.1,2323.18 31657.2,2323.11C31657.3,2323.03 31657.5,2322.99 31657.6,2322.99L31659,2322.99C31659.2,2322.99 31659.4,2323.08 31659.5,2323.24C31659.7,2323.41 31659.7,2323.66 31659.6,2324Z" style="fill-rule:nonzero;"/>
                                    </g>
                                    <g transform="matrix(1,0,0,1,-27964.5,2492.51)">
                                        <path d="M31663.9,2356.27L31663.9,2323.72C31663.9,2323.24 31664.1,2322.99 31664.6,2322.99L31686.9,2322.99C31687.4,2322.99 31687.7,2323.21 31687.7,2323.63L31687.7,2324.87C31687.7,2325.36 31687.4,2325.6 31686.9,2325.6L31666.5,2325.6L31666.5,2337.89L31682.9,2337.89C31683.4,2337.89 31683.7,2338.13 31683.7,2338.62L31683.7,2339.81C31683.7,2340.3 31683.4,2340.55 31682.9,2340.55L31666.5,2340.55L31666.5,2354.39L31687.2,2354.39C31687.7,2354.39 31688,2354.59 31688,2354.98L31688,2356.36C31688,2356.79 31687.7,2357 31687.2,2357L31664.6,2357C31664.1,2357 31663.9,2356.76 31663.9,2356.27Z" style="fill-rule:nonzero;"/>
                                    </g>
                                    <g transform="matrix(1,0,0,1,-28142.5,2539.51)">
                                        <path d="M31732.6,2351.64C31732.8,2351.49 31733,2351.4 31733.2,2351.39C31733.4,2351.37 31733.6,2351.47 31733.7,2351.68L31734.4,2352.74C31734.6,2352.98 31734.6,2353.17 31734.6,2353.31C31734.5,2353.45 31734.4,2353.59 31734.1,2353.75C31732.7,2354.91 31731.1,2355.82 31729.4,2356.5C31727.6,2357.17 31725.6,2357.5 31723.5,2357.5C31721.1,2357.5 31718.8,2357.05 31716.7,2356.13C31714.5,2355.21 31712.7,2353.96 31711.1,2352.37C31709.5,2350.78 31708.2,2348.92 31707.3,2346.78C31706.4,2344.64 31706,2342.36 31706,2339.95C31706,2337.51 31706.4,2335.23 31707.3,2333.12C31708.2,2331.01 31709.5,2329.17 31711.1,2327.6C31712.7,2326.02 31714.5,2324.79 31716.7,2323.89C31718.8,2322.98 31721.1,2322.53 31723.5,2322.53C31725.6,2322.53 31727.6,2322.87 31729.4,2323.54C31731.1,2324.21 31732.8,2325.13 31734.2,2326.29C31734.5,2326.54 31734.7,2326.76 31734.6,2326.96C31734.6,2327.16 31734.6,2327.28 31734.6,2327.35L31733.8,2328.35C31733.7,2328.41 31733.6,2328.49 31733.4,2328.58C31733.2,2328.68 31733,2328.61 31732.7,2328.4C31731.4,2327.42 31730,2326.63 31728.5,2326.02C31727,2325.41 31725.3,2325.1 31723.6,2325.1C31721.6,2325.1 31719.6,2325.49 31717.8,2326.27C31716,2327.05 31714.4,2328.12 31713.1,2329.48C31711.7,2330.84 31710.6,2332.42 31709.9,2334.22C31709.1,2336.02 31708.7,2337.93 31708.7,2339.95C31708.7,2342 31709,2343.93 31709.8,2345.75C31710.6,2347.57 31711.7,2349.16 31713,2350.51C31714.4,2351.87 31716,2352.95 31717.8,2353.75C31719.6,2354.54 31721.5,2354.94 31723.5,2354.94C31725.2,2354.94 31726.9,2354.63 31728.4,2354.02C31730,2353.41 31731.4,2352.62 31732.6,2351.64Z" style="fill-rule:nonzero;"/>
                                    </g>
                                    <g transform="matrix(1,0,0,1,-28142.5,2539.51)">
                                        <path d="M31737.8,2340.04C31737.8,2337.63 31738.3,2335.36 31739.2,2333.24C31740.1,2331.11 31741.3,2329.26 31742.9,2327.67C31744.5,2326.08 31746.3,2324.83 31748.5,2323.91C31750.6,2322.99 31752.9,2322.53 31755.3,2322.53C31757.7,2322.53 31759.9,2322.99 31762,2323.91C31764.2,2324.83 31766,2326.08 31767.6,2327.67C31769.2,2329.26 31770.4,2331.11 31771.3,2333.24C31772.2,2335.36 31772.7,2337.63 31772.7,2340.04C31772.7,2342.46 31772.2,2344.72 31771.3,2346.83C31770.4,2348.93 31769.2,2350.77 31767.6,2352.35C31766,2353.92 31764.2,2355.17 31762,2356.08C31759.9,2357 31757.6,2357.46 31755.2,2357.46C31752.8,2357.46 31750.5,2357 31748.4,2356.08C31746.3,2355.17 31744.5,2353.92 31742.9,2352.35C31741.3,2350.77 31740.1,2348.93 31739.2,2346.83C31738.3,2344.72 31737.8,2342.46 31737.8,2340.04ZM31740.5,2340C31740.5,2342.04 31740.9,2343.96 31741.6,2345.75C31742.4,2347.53 31743.5,2349.09 31744.8,2350.42C31746.1,2351.75 31747.7,2352.81 31749.5,2353.59C31751.3,2354.37 31753.2,2354.75 31755.3,2354.75C31757.3,2354.75 31759.2,2354.37 31761,2353.59C31762.8,2352.81 31764.4,2351.75 31765.7,2350.42C31767,2349.09 31768.1,2347.53 31768.9,2345.75C31769.6,2343.96 31770,2342.04 31770,2340C31770,2337.98 31769.6,2336.07 31768.9,2334.27C31768.1,2332.46 31767,2330.9 31765.7,2329.57C31764.4,2328.24 31762.8,2327.18 31761,2326.41C31759.2,2325.63 31757.3,2325.24 31755.3,2325.24C31753.2,2325.24 31751.3,2325.63 31749.5,2326.41C31747.7,2327.18 31746.1,2328.24 31744.8,2329.57C31743.5,2330.9 31742.4,2332.46 31741.6,2334.27C31740.9,2336.07 31740.5,2337.98 31740.5,2340Z" style="fill-rule:nonzero;"/>
                                    </g>
                                    <g transform="matrix(1,0,0,1,-28142.5,2539.51)">
                                        <path d="M31804.4,2352.28L31804.4,2323.72C31804.4,2323.21 31804.6,2322.95 31805.1,2322.95L31806.2,2322.95C31806.8,2322.95 31807,2323.19 31807,2323.68L31807,2356.36C31807,2356.79 31806.8,2357 31806.3,2357L31805.1,2357C31804.9,2357 31804.7,2356.95 31804.6,2356.86C31804.5,2356.77 31804.4,2356.66 31804.3,2356.54L31781.2,2327.39L31781.2,2356.18C31781.2,2356.72 31780.9,2357 31780.4,2357L31779.4,2357C31778.9,2357 31778.6,2356.72 31778.6,2356.18L31778.6,2323.82C31778.6,2323.27 31778.8,2322.99 31779.3,2322.99L31780.8,2322.99C31781,2322.99 31781.1,2323.07 31781.2,2323.22L31804.4,2352.28Z" style="fill-rule:nonzero;"/>
                                    </g>
                                    <g transform="matrix(1,0,0,1,-28142.5,2539.51)">
                                        <path d="M31812.9,2352.1C31812.8,2351.91 31812.7,2351.71 31812.6,2351.5C31812.5,2351.29 31812.5,2351.06 31812.8,2350.81L31813.7,2350.03C31813.9,2349.88 31814.1,2349.84 31814.3,2349.92C31814.5,2349.99 31814.7,2350.14 31814.9,2350.35C31816.1,2351.7 31817.4,2352.8 31819,2353.65C31820.6,2354.51 31822.6,2354.94 31824.9,2354.94C31826.2,2354.94 31827.4,2354.79 31828.6,2354.5C31829.8,2354.21 31830.9,2353.75 31831.8,2353.13C31832.7,2352.5 31833.4,2351.71 31834,2350.77C31834.6,2349.82 31834.8,2348.7 31834.8,2347.42C31834.8,2346.23 31834.5,2345.24 31833.8,2344.44C31833.1,2343.65 31832.3,2343 31831.2,2342.49C31830.2,2341.99 31829.1,2341.6 31828,2341.33C31826.8,2341.05 31825.7,2340.82 31824.8,2340.64C31821,2339.78 31818.1,2338.67 31816.2,2337.29C31814.2,2335.92 31813.2,2333.99 31813.2,2331.52C31813.2,2328.77 31814.3,2326.59 31816.4,2324.99C31818.5,2323.38 31821.4,2322.58 31825.2,2322.58C31827.3,2322.58 31829.2,2322.93 31831.1,2323.63C31832.9,2324.34 31834.5,2325.38 31835.9,2326.75C31836.1,2326.9 31836.2,2327.09 31836.2,2327.32C31836.2,2327.55 31836.1,2327.76 31835.9,2327.94L31835.2,2328.81C31834.9,2328.97 31834.7,2329 31834.5,2328.9C31834.3,2328.81 31834,2328.66 31833.8,2328.45C31832.7,2327.5 31831.5,2326.73 31830.3,2326.13C31829,2325.53 31827.4,2325.22 31825.5,2325.19C31824.4,2325.16 31823.3,2325.24 31822.1,2325.42C31821,2325.6 31820,2325.94 31819.1,2326.43C31818.2,2326.92 31817.4,2327.58 31816.8,2328.42C31816.2,2329.26 31816,2330.33 31816,2331.61C31816,2332.62 31816.2,2333.47 31816.8,2334.18C31817.3,2334.88 31818.1,2335.48 31819,2335.99C31819.9,2336.49 31820.9,2336.91 31822.1,2337.25C31823.3,2337.58 31824.4,2337.89 31825.7,2338.16C31827,2338.47 31828.4,2338.83 31829.8,2339.24C31831.2,2339.65 31832.5,2340.19 31833.6,2340.84C31834.8,2341.5 31835.7,2342.35 31836.4,2343.39C31837.1,2344.43 31837.5,2345.76 31837.5,2347.38C31837.5,2349.06 31837.2,2350.53 31836.5,2351.8C31835.8,2353.07 31834.9,2354.12 31833.7,2354.96C31832.5,2355.8 31831.2,2356.43 31829.7,2356.84C31828.2,2357.25 31826.6,2357.46 31824.9,2357.46C31822.5,2357.46 31820.2,2357.02 31818.2,2356.15C31816.3,2355.28 31814.5,2353.93 31812.9,2352.1Z" style="fill-rule:nonzero;"/>
                                    </g>
                                    <g transform="matrix(1,0,0,1,-28142.5,2539.51)">
                                        <path d="M31845.5,2323.82L31845.5,2343.39C31845.5,2345.01 31845.8,2346.52 31846.3,2347.93C31846.9,2349.33 31847.7,2350.56 31848.7,2351.62C31849.6,2352.67 31850.8,2353.49 31852.2,2354.09C31853.6,2354.68 31855.1,2354.98 31856.7,2354.98C31858.4,2354.98 31860,2354.68 31861.4,2354.09C31862.7,2353.49 31863.9,2352.67 31864.9,2351.62C31865.9,2350.56 31866.7,2349.33 31867.2,2347.93C31867.8,2346.52 31868.1,2345.01 31868.1,2343.39L31868.1,2323.82C31868.1,2323.27 31868.4,2322.99 31868.9,2322.99L31869.8,2322.99C31870.1,2322.99 31870.3,2323.07 31870.5,2323.22C31870.6,2323.37 31870.7,2323.57 31870.7,2323.82L31870.7,2343.71C31870.7,2345.72 31870.4,2347.57 31869.6,2349.25C31868.9,2350.93 31867.9,2352.39 31866.6,2353.63C31865.4,2354.87 31863.9,2355.83 31862.2,2356.52C31860.5,2357.21 31858.7,2357.55 31856.7,2357.55C31854.8,2357.55 31853,2357.18 31851.3,2356.45C31849.6,2355.72 31848.1,2354.72 31846.9,2353.47C31845.6,2352.22 31844.6,2350.74 31843.9,2349.05C31843.2,2347.35 31842.8,2345.54 31842.8,2343.62L31842.8,2323.82C31842.8,2323.57 31842.9,2323.37 31843,2323.22C31843.2,2323.07 31843.3,2322.99 31843.6,2322.99L31844.6,2322.99C31844.8,2322.99 31845.1,2323.07 31845.2,2323.22C31845.4,2323.37 31845.5,2323.57 31845.5,2323.82Z" style="fill-rule:nonzero;"/>
                                    </g>
                                    <g transform="matrix(1,0,0,1,-28142.5,2539.51)">
                                        <path d="M31877.8,2356.27L31877.8,2323.77C31877.8,2323.25 31878,2322.99 31878.5,2322.99L31879.7,2322.99C31880.2,2322.99 31880.4,2323.25 31880.4,2323.77L31880.4,2354.39L31898.6,2354.39C31899.1,2354.39 31899.4,2354.62 31899.4,2355.08L31899.4,2356.27C31899.4,2356.76 31899.1,2357 31898.6,2357L31878.5,2357C31878,2357 31877.8,2356.76 31877.8,2356.27Z" style="fill-rule:nonzero;"/>
                                    </g>
                                    <g transform="matrix(1,0,0,1,-28142.5,2539.51)">
                                        <path d="M31895.7,2322.99L31919.6,2322.99C31919.9,2322.99 31920.1,2323.06 31920.3,2323.2C31920.5,2323.34 31920.5,2323.54 31920.5,2323.82L31920.5,2324.83C31920.5,2325.38 31920.2,2325.65 31919.6,2325.65L31909,2325.65L31909,2356.18C31909,2356.72 31908.7,2357 31908.2,2357L31907.2,2357C31906.7,2357 31906.4,2356.72 31906.4,2356.18L31906.4,2325.65L31895.7,2325.65C31895.1,2325.65 31894.8,2325.34 31894.8,2324.73L31894.8,2323.82C31894.8,2323.27 31895.1,2322.99 31895.7,2322.99Z" style="fill-rule:nonzero;"/>
                                    </g>
                                    <g transform="matrix(1,0,0,1,-28142.5,2539.51)">
                                        <path d="M31925.5,2356.18L31925.5,2323.82C31925.5,2323.27 31925.8,2322.99 31926.4,2322.99L31927.3,2322.99C31927.9,2322.99 31928.2,2323.27 31928.2,2323.82L31928.2,2356.18C31928.2,2356.72 31927.9,2357 31927.3,2357L31926.4,2357C31925.8,2357 31925.5,2356.72 31925.5,2356.18Z" style="fill-rule:nonzero;"/>
                                    </g>
                                    <g transform="matrix(1,0,0,1,-28142.5,2539.51)">
                                        <path d="M31961.3,2352.28L31961.3,2323.72C31961.3,2323.21 31961.6,2322.95 31962.1,2322.95L31963.2,2322.95C31963.7,2322.95 31964,2323.19 31964,2323.68L31964,2356.36C31964,2356.79 31963.8,2357 31963.3,2357L31962.1,2357C31961.9,2357 31961.7,2356.95 31961.6,2356.86C31961.5,2356.77 31961.3,2356.66 31961.2,2356.54L31938.2,2327.39L31938.2,2356.18C31938.2,2356.72 31937.9,2357 31937.4,2357L31936.4,2357C31935.9,2357 31935.6,2356.72 31935.6,2356.18L31935.6,2323.82C31935.6,2323.27 31935.8,2322.99 31936.3,2322.99L31937.8,2322.99C31938,2322.99 31938.1,2323.07 31938.2,2323.22L31961.3,2352.28Z" style="fill-rule:nonzero;"/>
                                    </g>
                                    <g transform="matrix(1,0,0,1,-28142.5,2539.51)">
                                        <path d="M31986.7,2354.8C31988.3,2354.8 31989.8,2354.53 31991.4,2354C31993,2353.46 31994.2,2352.8 31995.2,2352L31995.2,2342.75C31995.2,2342.23 31995.5,2341.97 31996,2341.97L31997.2,2341.97C31997.7,2341.97 31997.9,2342.23 31997.9,2342.75L31997.9,2352.78C31997.9,2353.18 31997.8,2353.46 31997.5,2353.61C31996.1,2354.74 31994.4,2355.66 31992.6,2356.36C31990.8,2357.06 31988.9,2357.41 31986.8,2357.41C31984.3,2357.41 31982,2356.96 31979.9,2356.06C31977.7,2355.16 31975.9,2353.92 31974.3,2352.35C31972.7,2350.77 31971.5,2348.93 31970.6,2346.8C31969.7,2344.68 31969.2,2342.41 31969.2,2340C31969.2,2337.55 31969.7,2335.28 31970.6,2333.17C31971.5,2331.06 31972.8,2329.22 31974.4,2327.64C31975.9,2326.07 31977.8,2324.83 31979.9,2323.93C31982,2323.03 31984.3,2322.58 31986.7,2322.58C31988.8,2322.58 31990.8,2322.91 31992.5,2323.59C31994.3,2324.26 31995.9,2325.19 31997.4,2326.38C31997.7,2326.63 31997.8,2326.84 31997.8,2327.03C31997.8,2327.21 31997.7,2327.33 31997.6,2327.39L31996.9,2328.4C31996.8,2328.46 31996.7,2328.55 31996.5,2328.65C31996.3,2328.76 31996.1,2328.71 31995.8,2328.49C31994.5,2327.54 31993.1,2326.76 31991.6,2326.15C31990.1,2325.54 31988.5,2325.24 31986.8,2325.24C31984.7,2325.24 31982.8,2325.63 31981,2326.41C31979.2,2327.18 31977.6,2328.24 31976.2,2329.57C31974.9,2330.9 31973.8,2332.46 31973,2334.24C31972.3,2336.03 31971.9,2337.95 31971.9,2340C31971.9,2342.01 31972.3,2343.92 31973,2345.72C31973.8,2347.53 31974.9,2349.1 31976.2,2350.45C31977.6,2351.79 31979.2,2352.85 31981,2353.63C31982.8,2354.41 31984.7,2354.8 31986.7,2354.8Z" style="fill-rule:nonzero;"/>
                                    </g>
                                </g>
                                <g transform="matrix(0.75,0,0,1.69862,868.96,-2963.89)">
                                    <rect x="3559" y="4667" width="4" height="75"/>
                                </g>
                            </g>
                        </g>
                    </g>
                    <g transform="matrix(0.797672,0,0,0.249516,-3511.96,-487.145)">
                        <path d="M4740.05,2611.65L4740.05,2572.52L4741.77,2572.52L4741.77,2607.53L4748.34,2607.53L4748.34,2611.65L4740.05,2611.65Z" style="fill-rule:nonzero;"/>
                        <path d="M4755.31,2612.19C4753.67,2612.19 4752.36,2610.87 4751.41,2608.23C4750.46,2605.59 4749.98,2601.92 4749.98,2597.22C4749.98,2592.5 4750.43,2588.74 4751.31,2585.95C4752.2,2583.17 4753.38,2581.78 4754.88,2581.78C4756.27,2581.78 4757.38,2582.99 4758.19,2585.41C4759.01,2587.82 4759.41,2591.01 4759.41,2594.98L4759.41,2597.79L4751.73,2597.79C4751.77,2601.23 4752.1,2603.85 4752.73,2605.63C4753.35,2607.41 4754.23,2608.31 4755.38,2608.31C4756.57,2608.31 4757.76,2607.65 4758.94,2606.33L4758.94,2610.29C4758.34,2610.97 4757.77,2611.45 4757.24,2611.75C4756.71,2612.04 4756.07,2612.19 4755.31,2612.19ZM4754.86,2585.5C4753.96,2585.5 4753.25,2586.27 4752.72,2587.8C4752.18,2589.34 4751.87,2591.46 4751.77,2594.17L4757.6,2594.17C4757.6,2591.37 4757.36,2589.22 4756.89,2587.74C4756.42,2586.24 4755.74,2585.5 4754.86,2585.5Z" style="fill-rule:nonzero;"/>
                        <path d="M4765.89,2608.52C4766.19,2608.52 4766.48,2608.46 4766.76,2608.35C4767.04,2608.23 4767.26,2608.11 4767.42,2607.99L4767.42,2611.39C4767.24,2611.62 4766.97,2611.81 4766.61,2611.96C4766.25,2612.11 4765.93,2612.19 4765.65,2612.19C4763.49,2612.19 4762.41,2609.2 4762.41,2603.22L4762.41,2585.77L4760.82,2585.77L4760.82,2583.63L4762.41,2581.78L4763.13,2575.51L4764.1,2575.51L4764.1,2582.31L4767.34,2582.31L4767.34,2585.77L4764.1,2585.77L4764.1,2603.03C4764.1,2604.8 4764.26,2606.16 4764.58,2607.1C4764.9,2608.05 4765.34,2608.52 4765.89,2608.52Z" style="fill-rule:nonzero;"/>
                        <path d="M4778.66,2608.52C4778.96,2608.52 4779.25,2608.46 4779.52,2608.35C4779.8,2608.23 4780.02,2608.11 4780.19,2607.99L4780.19,2611.39C4780,2611.62 4779.73,2611.81 4779.38,2611.96C4779.02,2612.11 4778.7,2612.19 4778.41,2612.19C4776.26,2612.19 4775.18,2609.2 4775.18,2603.22L4775.18,2585.77L4773.58,2585.77L4773.58,2583.63L4775.18,2581.78L4775.89,2575.51L4776.87,2575.51L4776.87,2582.31L4780.1,2582.31L4780.1,2585.77L4776.87,2585.77L4776.87,2603.03C4776.87,2604.8 4777.03,2606.16 4777.35,2607.1C4777.67,2608.05 4778.1,2608.52 4778.66,2608.52Z" style="fill-rule:nonzero;"/>
                        <path d="M4790.04,2611.65L4790.04,2592.67C4790.04,2590.28 4789.84,2588.5 4789.42,2587.32C4789.01,2586.14 4788.36,2585.55 4787.48,2585.55C4786.31,2585.55 4785.45,2586.39 4784.91,2588.07C4784.37,2589.75 4784.1,2592.5 4784.1,2596.32L4784.1,2611.65L4782.41,2611.65L4782.41,2570L4784.1,2570L4784.1,2582.61C4784.1,2584.13 4784.07,2585.38 4784.02,2586.38L4784.12,2586.38C4784.45,2584.97 4784.93,2583.86 4785.54,2583.05C4786.15,2582.24 4786.86,2581.83 4787.64,2581.83C4789.01,2581.83 4790.03,2582.68 4790.71,2584.39C4791.39,2586.09 4791.73,2588.8 4791.73,2592.51L4791.73,2611.65L4790.04,2611.65Z" style="fill-rule:nonzero;"/>
                        <path d="M4799.91,2612.19C4798.26,2612.19 4796.96,2610.87 4796.01,2608.23C4795.06,2605.59 4794.58,2601.92 4794.58,2597.22C4794.58,2592.5 4795.02,2588.74 4795.91,2585.95C4796.79,2583.17 4797.98,2581.78 4799.47,2581.78C4800.87,2581.78 4801.98,2582.99 4802.79,2585.41C4803.6,2587.82 4804.01,2591.01 4804.01,2594.98L4804.01,2597.79L4796.33,2597.79C4796.36,2601.23 4796.69,2603.85 4797.32,2605.63C4797.95,2607.41 4798.83,2608.31 4799.97,2608.31C4801.17,2608.31 4802.36,2607.65 4803.53,2606.33L4803.53,2610.29C4802.94,2610.97 4802.37,2611.45 4801.84,2611.75C4801.31,2612.04 4800.66,2612.19 4799.91,2612.19ZM4799.45,2585.5C4798.56,2585.5 4797.84,2586.27 4797.31,2587.8C4796.78,2589.34 4796.47,2591.46 4796.37,2594.17L4802.2,2594.17C4802.2,2591.37 4801.96,2589.22 4801.49,2587.74C4801.01,2586.24 4800.33,2585.5 4799.45,2585.5Z" style="fill-rule:nonzero;"/>
                        <path d="M4826.51,2611.65L4826.51,2592.57C4826.51,2590.23 4826.32,2588.48 4825.94,2587.31C4825.56,2586.14 4824.97,2585.55 4824.17,2585.55C4823.12,2585.55 4822.34,2586.35 4821.84,2587.94C4821.34,2589.52 4821.09,2591.97 4821.09,2595.27L4821.09,2611.65L4819.4,2611.65L4819.4,2592.57C4819.4,2590.23 4819.21,2588.48 4818.83,2587.31C4818.45,2586.14 4817.86,2585.55 4817.05,2585.55C4815.99,2585.55 4815.22,2586.39 4814.73,2588.06C4814.23,2589.72 4813.99,2592.46 4813.99,2596.26L4813.99,2611.65L4812.3,2611.65L4812.3,2582.31L4813.67,2582.31L4813.95,2586.33L4814.03,2586.33C4814.35,2584.9 4814.8,2583.79 4815.38,2582.98C4815.96,2582.18 4816.61,2581.78 4817.32,2581.78C4819.07,2581.78 4820.21,2583.44 4820.74,2586.76L4820.82,2586.76C4821.16,2585.22 4821.64,2584.01 4822.27,2583.12C4822.9,2582.22 4823.62,2581.78 4824.43,2581.78C4825.69,2581.78 4826.63,2582.63 4827.26,2584.34C4827.89,2586.04 4828.2,2588.77 4828.2,2592.51L4828.2,2611.65L4826.51,2611.65Z" style="fill-rule:nonzero;"/>
                        <path d="M4841.3,2596.96C4841.3,2601.74 4840.84,2605.47 4839.93,2608.16C4839.01,2610.85 4837.75,2612.19 4836.13,2612.19C4835.14,2612.19 4834.25,2611.57 4833.48,2610.34C4832.71,2609.11 4832.11,2607.34 4831.69,2605.04C4831.27,2602.74 4831.06,2600.05 4831.06,2596.96C4831.06,2592.17 4831.51,2588.45 4832.42,2585.78C4833.33,2583.11 4834.59,2581.78 4836.21,2581.78C4837.77,2581.78 4839.01,2583.14 4839.92,2585.87C4840.84,2588.61 4841.3,2592.3 4841.3,2596.96ZM4832.81,2596.96C4832.81,2600.7 4833.09,2603.56 4833.66,2605.52C4834.23,2607.49 4835.07,2608.47 4836.18,2608.47C4837.28,2608.47 4838.12,2607.49 4838.69,2605.54C4839.27,2603.58 4839.55,2600.72 4839.55,2596.96C4839.55,2593.23 4839.27,2590.39 4838.69,2588.46C4838.12,2586.52 4837.27,2585.55 4836.15,2585.55C4835.05,2585.55 4834.22,2586.51 4833.65,2588.42C4833.09,2590.33 4832.81,2593.17 4832.81,2596.96Z" style="fill-rule:nonzero;"/>
                        <path d="M4851.89,2611.65L4851.89,2592.67C4851.89,2590.28 4851.69,2588.5 4851.27,2587.32C4850.86,2586.14 4850.21,2585.55 4849.33,2585.55C4848.16,2585.55 4847.31,2586.38 4846.77,2588.04C4846.22,2589.7 4845.95,2592.44 4845.95,2596.26L4845.95,2611.65L4844.26,2611.65L4844.26,2582.31L4845.64,2582.31L4845.91,2586.33L4845.99,2586.33C4846.34,2584.88 4846.82,2583.76 4847.45,2582.97C4848.07,2582.18 4848.77,2581.78 4849.53,2581.78C4850.87,2581.78 4851.89,2582.63 4852.56,2584.34C4853.24,2586.04 4853.58,2588.77 4853.58,2592.51L4853.58,2611.65L4851.89,2611.65Z" style="fill-rule:nonzero;"/>
                        <path d="M4861.76,2612.19C4860.11,2612.19 4858.81,2610.87 4857.86,2608.23C4856.9,2605.59 4856.43,2601.92 4856.43,2597.22C4856.43,2592.5 4856.87,2588.74 4857.76,2585.95C4858.64,2583.17 4859.83,2581.78 4861.32,2581.78C4862.72,2581.78 4863.82,2582.99 4864.64,2585.41C4865.45,2587.82 4865.86,2591.01 4865.86,2594.98L4865.86,2597.79L4858.18,2597.79C4858.21,2601.23 4858.54,2603.85 4859.17,2605.63C4859.8,2607.41 4860.68,2608.31 4861.82,2608.31C4863.02,2608.31 4864.21,2607.65 4865.38,2606.33L4865.38,2610.29C4864.78,2610.97 4864.22,2611.45 4863.69,2611.75C4863.15,2612.04 4862.51,2612.19 4861.76,2612.19ZM4861.3,2585.5C4860.41,2585.5 4859.69,2586.27 4859.16,2587.8C4858.63,2589.34 4858.31,2591.46 4858.22,2594.17L4864.05,2594.17C4864.05,2591.37 4863.81,2589.22 4863.34,2587.74C4862.86,2586.24 4862.18,2585.5 4861.3,2585.5Z" style="fill-rule:nonzero;"/>
                        <path d="M4866.55,2582.31L4868.36,2582.31L4870.8,2599.05C4871.34,2602.86 4871.67,2605.62 4871.8,2607.32L4871.88,2607.32C4871.97,2606.41 4872.15,2604.85 4872.44,2602.65C4872.72,2600.44 4873.64,2593.66 4875.2,2582.31L4877.01,2582.31L4872.22,2615.72C4871.74,2619.02 4871.19,2621.37 4870.55,2622.75C4869.92,2624.13 4869.14,2624.83 4868.22,2624.83C4867.7,2624.83 4867.19,2624.67 4866.69,2624.37L4866.69,2620.81C4867.07,2621.02 4867.48,2621.13 4867.94,2621.13C4869.1,2621.13 4869.93,2619.42 4870.43,2615.99L4871.05,2611.81L4866.55,2582.31Z" style="fill-rule:nonzero;"/>
                        <path d="M4889.26,2585.77L4886.42,2585.77L4886.42,2611.65L4884.73,2611.65L4884.73,2585.77L4882.73,2585.77L4882.73,2583.76L4884.73,2582.15L4884.73,2580.52C4884.73,2573.31 4885.93,2569.71 4888.32,2569.71C4888.91,2569.71 4889.6,2570.02 4890.4,2570.64L4889.96,2574.2C4889.31,2573.65 4888.75,2573.37 4888.29,2573.37C4887.65,2573.37 4887.18,2573.93 4886.88,2575.05C4886.57,2576.16 4886.42,2577.95 4886.42,2580.41L4886.42,2582.31L4889.26,2582.31L4889.26,2585.77ZM4892.98,2611.65L4891.29,2611.65L4891.29,2570L4892.98,2570L4892.98,2611.65Z" style="fill-rule:nonzero;"/>
                        <path d="M4906.18,2596.96C4906.18,2601.74 4905.73,2605.47 4904.81,2608.16C4903.89,2610.85 4902.63,2612.19 4901.02,2612.19C4900.02,2612.19 4899.13,2611.57 4898.36,2610.34C4897.59,2609.11 4896.99,2607.34 4896.57,2605.04C4896.15,2602.74 4895.94,2600.05 4895.94,2596.96C4895.94,2592.17 4896.39,2588.45 4897.3,2585.78C4898.21,2583.11 4899.47,2581.78 4901.09,2581.78C4902.65,2581.78 4903.89,2583.14 4904.8,2585.87C4905.72,2588.61 4906.18,2592.3 4906.18,2596.96ZM4897.69,2596.96C4897.69,2600.7 4897.97,2603.56 4898.54,2605.52C4899.11,2607.49 4899.95,2608.47 4901.06,2608.47C4902.16,2608.47 4903,2607.49 4903.57,2605.54C4904.15,2603.58 4904.43,2600.72 4904.43,2596.96C4904.43,2593.23 4904.15,2590.39 4903.57,2588.46C4903,2586.52 4902.15,2585.55 4901.03,2585.55C4899.93,2585.55 4899.1,2586.51 4898.53,2588.42C4897.97,2590.33 4897.69,2593.17 4897.69,2596.96Z" style="fill-rule:nonzero;"/>
                        <path d="M4917.83,2611.65L4915.78,2594.44C4915.66,2593.39 4915.42,2591 4915.06,2587.27L4914.98,2587.27C4914.71,2590.39 4914.47,2592.8 4914.27,2594.49L4912.16,2611.65L4910.21,2611.65L4907.17,2582.31L4908.94,2582.31C4909.66,2589.68 4910.21,2595.3 4910.58,2599.15C4910.96,2603.01 4911.17,2605.6 4911.23,2606.94L4911.31,2606.94C4911.38,2605.93 4911.5,2604.61 4911.67,2602.99C4911.84,2601.38 4911.98,2600.1 4912.1,2599.15L4914.15,2582.31L4915.98,2582.31L4917.97,2599.15C4918.35,2602.22 4918.61,2604.8 4918.74,2606.89L4918.83,2606.89C4918.85,2606.25 4918.93,2605.26 4919.05,2603.92C4919.16,2602.58 4919.87,2595.38 4921.17,2582.31L4922.92,2582.31L4919.83,2611.65L4917.83,2611.65Z" style="fill-rule:nonzero;"/>
                    </g>
                </g>
            </g>
        </g>
    </g>
</svg>
